<svg xmlns="http://www.w3.org/2000/svg" viewBox="0 0 64 64" width="64" height="64">
  <!-- Navy disc — fills the browser's circular crop cleanly -->
  <circle cx="32" cy="32" r="32" fill="#064162"/>

  <!-- JWM chevron mark, centered and scaled to the disc.
       Source: public/logo-jwm.svg (viewBox 169x43). We center the
       gold middle "W" element + one navy chevron on each side so the
       silhouette reads as JWM even at 16px. -->
  <g transform="translate(32 32) scale(0.82) translate(-84.5 -21.5)">
    <!-- Left navy chevron (J) -->
    <path d="M26.757,42.942c-0.555,-0.814 -1.006,-1.394 -1.371,-2.024c-7.425,-12.832 -14.844,-25.668 -22.256,-38.507c-1.127,-1.952 -0.885,-2.382 1.355,-2.386c5.572,-0.011 11.153,0.029 16.73,-0.025c1.392,-0.126 2.727,0.619 3.35,1.87c4.029,7.063 8.158,14.07 12.142,21.157c0.485,0.904 0.558,1.975 0.2,2.936c-2.976,5.428 -6.127,10.76 -9.238,16.114c-0.271,0.32 -0.576,0.611 -0.91,0.865" fill="#ffffff"/>
    <!-- Small upper navy chevron (J dot) -->
    <path d="M9.789,42.929c-2.565,-0 -5.13,0.02 -7.7,-0.006c-1.928,-0.02 -2.6,-0.965 -1.693,-2.59c2.66,-4.736 5.378,-9.442 8.153,-14.119c0.825,-1.4 1.889,-1.377 2.718,0.035c2.751,4.687 5.461,9.397 8.129,14.132c0.894,1.592 0.3,2.51 -1.536,2.539c-2.69,0.042 -5.381,0.011 -8.071,0.011" fill="#ffffff"/>
    <!-- Gold W left wing -->
    <path d="M55.359,42.942c-0.555,-0.814 -1.006,-1.394 -1.371,-2.024c-7.425,-12.832 -14.843,-25.668 -22.255,-38.507c-1.127,-1.952 -0.885,-2.382 1.355,-2.386c5.576,-0.01 11.153,0.03 16.73,-0.024c1.392,-0.126 2.727,0.619 3.35,1.87c4.028,7.063 8.158,14.07 12.142,21.157c0.485,0.904 0.558,1.975 0.2,2.936c-2.976,5.428 -6.127,10.76 -9.238,16.114c-0.271,0.32 -0.576,0.611 -0.91,0.865" fill="#e69b40"/>
    <!-- Gold W right wing -->
    <path d="M83.655,42.951c-0.515,-0.709 -0.953,-1.213 -1.281,-1.78c-7.488,-12.94 -14.968,-25.885 -22.439,-38.834c-1.079,-1.869 -0.84,-2.305 1.27,-2.311c5.7,-0.014 11.4,0.017 17.1,-0.02c1.272,-0.08 2.474,0.619 3.032,1.765c4.038,7.058 8.163,14.067 12.124,21.167c0.516,1.014 0.572,2.203 0.153,3.261c-2.834,5.221 -5.873,10.33 -8.863,15.466c-0.332,0.457 -0.699,0.887 -1.1,1.285" fill="#e69b40"/>
    <!-- Gold upper V (crown) -->
    <path d="M97.938,0.023c2.628,0 5.257,-0.028 7.884,0.01c1.812,0.026 2.389,0.938 1.489,2.537c-2.667,4.733 -5.381,9.441 -8.142,14.124c-0.8,1.355 -1.921,1.315 -2.732,-0.066c-2.752,-4.687 -5.468,-9.394 -8.147,-14.122c-0.89,-1.578 -0.3,-2.451 1.577,-2.474c2.69,-0.034 5.381,-0.009 8.072,-0.009" fill="#e69b40"/>
    <!-- Right navy chevron (M end) — rendered in white for contrast on the navy disc -->
    <path d="M129.835,42.8c-2.822,-0 -5.645,-0.037 -8.467,0.016c-1.278,0.089 -2.488,-0.608 -3.052,-1.758c-4.077,-7.117 -8.177,-14.222 -12.3,-21.314c-0.676,-0.999 -0.672,-2.318 0.011,-3.313c2.941,-5.025 5.815,-10.09 8.74,-15.124c0.919,-1.582 1.4,-1.591 2.3,-0.024c7.631,13.165 15.246,26.339 22.846,39.52c0.876,1.519 0.592,1.969 -1.23,1.988c-2.948,0.03 -5.9,0.008 -8.843,0.008" fill="#ffffff"/>
    <path d="M158.197,42.8c-2.885,-0 -5.78,0.139 -8.649,-0.076c-1.129,-0.117 -2.16,-0.699 -2.844,-1.605c-4.244,-7.091 -8.313,-14.286 -12.475,-21.426c-0.661,-1.011 -0.64,-2.33 0.053,-3.32c2.912,-4.969 5.762,-9.975 8.656,-14.954c1.02,-1.757 1.44,-1.749 2.494,0.074c7.523,13.006 15.037,26.018 22.542,39.035c1.088,1.885 0.868,2.255 -1.311,2.269c-2.823,0.018 -5.645,-0 -8.466,-0" fill="#ffffff"/>
  </g>
</svg>
